<?xml version="1.0" encoding="UTF-8" standalone="no"?><!DOCTYPE svg PUBLIC "-//W3C//DTD SVG 1.1//EN" "http://www.w3.org/Graphics/SVG/1.1/DTD/svg11.dtd"><svg width="100%" height="100%" viewBox="0 0 659 727" version="1.1" xmlns="http://www.w3.org/2000/svg" xmlns:xlink="http://www.w3.org/1999/xlink" xml:space="preserve" xmlns:serif="http://www.serif.com/" style="fill-rule:evenodd;clip-rule:evenodd;stroke-linejoin:round;stroke-miterlimit:2;"><g><path d="M269.351,476.144c3.368,0.929 6.978,0.025 9.51,-2.382c31.706,-30.084 213.397,-202.803 283.834,-269.762c1.816,-1.727 2.073,-4.531 0.602,-6.559c-1.471,-2.028 -4.216,-2.654 -6.421,-1.465c-47.358,25.979 -129.626,71.106 -145.789,79.964c-2.097,0.989 -4.473,1.219 -6.72,0.65c-7.197,-2.415 -19.963,-8.529 -27.614,-12.314c-3.799,-1.881 -8.371,-1.162 -11.41,1.794c-32.079,31.206 -206.653,201.029 -271.7,264.305c-1.779,1.73 -2.019,4.503 -0.565,6.514c1.454,2.011 4.162,2.651 6.363,1.504c43.299,-22.565 119.845,-62.456 138.823,-72.346c2.693,-1.403 5.878,-1.507 8.656,-0.281c5.858,2.73 16.323,7.577 22.432,10.378Z" style="fill:#fff;"/><ellipse cx="39.072" cy="576.766" rx="38.335" ry="37.93" style="fill:#fff;"/><path d="M537.631,290.492c1.017,-1.007 2.417,-1.529 3.845,-1.435c1.428,0.094 2.748,0.795 3.624,1.926c35.072,45.623 55.902,102.535 55.902,164.224c0,149.905 -123.004,271.608 -274.509,271.608c-62.309,0 -119.797,-20.585 -165.891,-55.25c-1.154,-0.875 -1.872,-2.209 -1.967,-3.654c-0.095,-1.446 0.442,-2.861 1.472,-3.88c14.325,-14.177 62.22,-61.567 74.416,-73.633c1.657,-1.639 4.227,-1.916 6.195,-0.667c24.827,15.547 54.248,24.546 85.776,24.546c88.731,0 160.769,-71.277 160.769,-159.07c0,-31.16 -9.075,-60.239 -24.75,-84.79c-1.285,-1.985 -1.001,-4.599 0.68,-6.262c12.309,-12.19 60.242,-59.616 74.439,-73.663Z" style="fill:#fff;"/><path d="M115.661,439.652c-1.002,1.022 -2.394,1.566 -3.823,1.494c-1.429,-0.072 -2.759,-0.753 -3.653,-1.871c-35.767,-45.092 -57.466,-101.687 -58.41,-163.368c-2.294,-149.887 118.833,-273.42 270.322,-275.689c62.302,-0.933 120.099,18.788 166.719,52.76c1.167,0.858 1.905,2.18 2.022,3.624c0.117,1.444 -0.399,2.868 -1.413,3.902c-14.106,14.39 -61.269,62.49 -73.279,74.738c-1.632,1.664 -4.198,1.98 -6.184,0.761c-25.062,-15.173 -54.617,-23.731 -86.142,-23.259c-88.721,1.329 -159.66,73.677 -158.316,161.46c0.477,31.157 9.996,60.097 26.045,84.41c1.315,1.965 1.071,4.583 -0.585,6.271c-12.122,12.373 -59.321,60.51 -73.302,74.769Z" style="fill:#fff;"/><ellipse cx="619.979" cy="154.231" rx="38.335" ry="37.93" style="fill:#fff;"/></g></svg>