<?xml version="1.0" encoding="UTF-8" standalone="no"?><!DOCTYPE svg PUBLIC "-//W3C//DTD SVG 1.1//EN" "http://www.w3.org/Graphics/SVG/1.1/DTD/svg11.dtd"><svg width="100%" height="100%" viewBox="0 0 663 733" version="1.1" xmlns="http://www.w3.org/2000/svg" xmlns:xlink="http://www.w3.org/1999/xlink" xml:space="preserve" xmlns:serif="http://www.serif.com/" style="fill-rule:evenodd;clip-rule:evenodd;stroke-linejoin:round;stroke-miterlimit:2;"><g><path d="M271.017,479.843c3.368,0.928 6.975,0.024 9.507,-2.383c31.841,-30.213 214.995,-204.322 285.759,-271.592c1.816,-1.727 2.073,-4.531 0.602,-6.559c-1.471,-2.028 -4.216,-2.654 -6.421,-1.465c-47.634,26.13 -130.666,71.676 -146.901,80.574c-2.094,0.988 -4.466,1.218 -6.711,0.652c-7.247,-2.426 -20.146,-8.606 -27.85,-12.417c-3.799,-1.881 -8.372,-1.163 -11.41,1.793c-32.217,31.34 -208.187,202.521 -273.532,266.088c-1.779,1.73 -2.019,4.503 -0.565,6.514c1.454,2.011 4.162,2.651 6.363,1.504c43.549,-22.695 120.802,-62.955 139.878,-72.895c2.693,-1.403 5.879,-1.507 8.657,-0.281c5.899,2.749 16.475,7.648 22.626,10.467Z" style="fill:#0f60b0;fill-opacity:0.99;"/><ellipse cx="39.305" cy="581.063" rx="38.568" ry="38.161" style="fill:#0b8ced;"/><path d="M540.921,293.023c1.017,-1.007 2.417,-1.529 3.845,-1.435c1.428,0.094 2.747,0.795 3.624,1.926c35.298,45.905 56.264,103.174 56.264,165.25c0,150.817 -123.752,273.26 -276.179,273.26c-62.701,0 -120.55,-20.719 -166.929,-55.608c-1.154,-0.875 -1.872,-2.209 -1.967,-3.654c-0.095,-1.446 0.442,-2.861 1.472,-3.88c14.388,-14.239 62.661,-62.003 74.911,-74.123c1.657,-1.639 4.227,-1.916 6.195,-0.667c24.982,15.649 54.589,24.708 86.318,24.708c89.27,0 161.747,-71.71 161.747,-160.037c0,-31.358 -9.135,-60.622 -24.914,-85.326c-1.285,-1.985 -1.001,-4.599 0.679,-6.262c12.363,-12.243 60.674,-60.044 74.934,-74.153Z" style="fill:#0b8ced;"/><path d="M116.336,443.14c-1.002,1.022 -2.393,1.566 -3.823,1.494c-1.429,-0.072 -2.759,-0.753 -3.653,-1.871c-35.997,-45.371 -57.837,-102.32 -58.787,-164.389c-2.308,-150.799 119.556,-275.083 271.966,-277.366c62.694,-0.939 120.854,18.91 167.761,53.101c1.167,0.858 1.905,2.18 2.022,3.624c0.117,1.444 -0.399,2.867 -1.413,3.902c-14.168,14.454 -61.703,62.933 -73.767,75.235c-1.632,1.664 -4.198,1.98 -6.185,0.76c-25.219,-15.273 -54.961,-23.888 -86.686,-23.412c-89.26,1.337 -160.631,74.125 -159.279,162.442c0.48,31.355 10.062,60.478 26.217,84.943c1.315,1.965 1.071,4.583 -0.584,6.272c-12.175,12.428 -59.747,60.944 -73.79,75.266Z" style="fill:#173a86;"/><ellipse cx="623.746" cy="155.958" rx="38.568" ry="38.161" style="fill:#173a86;"/></g></svg>